<svg width="70" height="62" viewBox="0 0 70 62" fill="none" xmlns="http://www.w3.org/2000/svg">
<path d="M52.3708 17.5234C50.279 16.6849 49.6747 16.1778 49.6747 15.2622C49.6747 14.5294 50.2297 13.6734 51.7945 13.6734C53.1785 13.6734 54.24 14.2191 54.2494 14.2238C54.3611 14.2834 54.4864 14.3152 54.6105 14.3152C54.9133 14.3152 55.1813 14.1319 55.2924 13.8482L55.6725 12.8763C55.8049 12.5221 55.6041 12.2136 55.348 12.1029C54.4959 11.732 52.8305 11.4449 52.8135 11.4419C52.7867 11.4372 52.6934 11.4173 52.6934 11.3082L52.688 9.8983C52.688 9.47372 52.3335 9.12805 51.8983 9.12805H51.2162C50.7814 9.12805 50.427 9.47352 50.427 9.89849L50.4288 11.3808C50.4288 11.4944 50.3057 11.5437 50.2607 11.5542C48.1585 12.0549 46.8447 13.5948 46.8447 15.5372C46.8447 17.9586 48.8463 19.0529 51.0075 19.8742C52.7352 20.5525 53.4399 21.2403 53.4399 22.2491C53.4399 23.3468 52.4418 24.1135 51.0118 24.1135C49.7907 24.1135 48.1382 23.3395 48.1218 23.3316C48.016 23.2815 47.904 23.2563 47.7888 23.2563C47.4743 23.2563 47.2004 23.4465 47.0909 23.741L46.7279 24.7239C46.5989 25.0909 46.7975 25.3888 47.0519 25.5214C48.0668 26.05 50.0306 26.3597 50.118 26.3733C50.1415 26.3767 50.2611 26.4187 50.2611 26.528V28.0038C50.2611 28.4284 50.6156 28.774 51.0511 28.774H51.7558C52.1914 28.774 52.546 28.4286 52.546 28.0038V26.4507C52.546 26.3055 52.6531 26.2926 52.6752 26.2873C54.9147 25.7842 56.2942 24.1457 56.2942 22.0883C56.2936 19.975 55.1201 18.6095 52.3708 17.5234Z" fill="#2DBE60"/>
<path d="M51.4903 0.440918C41.2671 0.440918 32.9803 8.72836 32.9803 18.9509C32.9803 29.1736 41.2671 37.4612 51.4903 37.4612C61.713 37.4612 70 29.1736 70 18.9509C70 8.72836 61.713 0.440918 51.4903 0.440918ZM51.4903 33.1714C43.6363 33.1714 37.2699 26.8045 37.2699 18.9511C37.2699 11.0977 43.6363 4.73093 51.4903 4.73093C59.3438 4.73093 65.71 11.0977 65.71 18.9511C65.71 26.8045 59.3438 33.1714 51.4903 33.1714Z" fill="#2DBE60"/>
<path d="M66.2389 46.4309C62.3029 48.6034 56.8893 50.612 51.4904 51.4588C46.6871 52.2121 37.6505 50.3954 37.6505 48.2498C37.6505 47.4367 45.5759 50.2531 50.37 48.9741C54.0462 47.9933 53.5244 44.5544 51.5248 44.1008C49.5368 43.6496 37.89 39.3829 32.9152 39.2357C30.5717 39.1665 24.786 40.0507 21.9863 40.5067C21.0273 40.6628 20.4259 40.6456 20.3659 41.5634C20.0873 45.829 19.5383 54.5518 19.239 59.1082C19.2327 59.2045 19.3664 60.4992 20.4348 59.588C21.6042 58.5909 23.2443 57.4856 24.7613 57.8297C27.1413 58.3697 47.7313 62.1418 50.5714 61.4817C54.6344 60.5372 66.1358 53.7212 68.3409 51.6027C71.7589 48.3183 69.1019 44.8508 66.2389 46.4309Z" fill="#2DBE60"/>
<path d="M14.684 40.3404L3.8974 39.8088C3.06461 39.7678 2.21406 40.3954 2.0071 41.2029L0.0457741 59.0099C-0.160993 59.8177 0.351584 60.5051 1.18477 60.5372L13.139 60.536C13.9723 60.5682 14.7059 59.9144 14.7698 59.0829L16.0826 41.9264C16.1461 41.0952 15.5168 40.3814 14.684 40.3404ZM8.3338 58.177C6.68658 58.177 5.35147 56.8417 5.35147 55.1946C5.35147 53.5474 6.68677 52.2123 8.3338 52.2123C9.98083 52.2123 11.3161 53.5476 11.3161 55.1946C11.3161 56.8419 9.98103 58.177 8.3338 58.177Z" fill="#2DBE60"/>
</svg>
