<svg width="70" height="50" viewBox="0 0 70 50" fill="none" xmlns="http://www.w3.org/2000/svg">
<path d="M21.5912 5.71607H43.1894C43.7569 5.71607 44.2168 5.25602 44.2168 4.68848C44.2168 4.12094 43.7569 3.66089 43.1894 3.66089H21.5912C21.0236 3.66089 20.5636 4.12094 20.5636 4.68848C20.5636 5.25602 21.0236 5.71607 21.5912 5.71607Z" fill="#2DBE60"/>
<path d="M2.27487 15.7632H23.8729C24.4405 15.7632 24.9005 15.3032 24.9005 14.7356C24.9005 14.1681 24.4405 13.7082 23.8729 13.7082H2.27487C1.70734 13.7082 1.24728 14.1681 1.24728 14.7356C1.24728 15.3032 1.70734 15.7632 2.27487 15.7632Z" fill="#2DBE60"/>
<path d="M8.07292 26.3357C8.07292 26.9033 8.53298 27.3635 9.10051 27.3635H30.6986C31.2661 27.3635 31.7262 26.9033 31.7262 26.3357C31.7262 25.7682 31.2661 25.3083 30.6986 25.3083H9.10051C8.53298 25.3083 8.07292 25.7682 8.07292 26.3357Z" fill="#2DBE60"/>
<path d="M20.4336 38.2786H1.02759C0.460055 38.2786 0 38.7385 0 39.306C0 39.8735 0.460055 40.3336 1.02759 40.3336H20.4336C21.0011 40.3336 21.4612 39.8735 21.4612 39.306C21.4612 38.7385 21.0011 38.2786 20.4336 38.2786Z" fill="#2DBE60"/>
<path d="M55.3514 12.1587C58.451 12.1587 60.9638 9.64564 60.9638 6.54593C60.9638 3.44623 58.4508 0.933289 55.3514 0.933289C52.2511 0.933289 49.7379 3.44637 49.7379 6.54593C49.7378 9.64564 52.251 12.1587 55.3514 12.1587Z" fill="#2DBE60"/>
<path d="M64.5837 10.5425C61.3608 15.0568 57.0453 15.5796 52.4014 12.8227C52.0852 12.6353 50.6827 11.8625 50.3722 11.678C42.9015 7.24305 35.4396 8.98225 30.4354 15.9901C28.3089 18.9707 33.2271 21.7959 35.3298 18.85C37.9154 15.2293 41.2031 14.1816 44.7987 15.3285C42.9576 18.5242 41.348 21.7005 39.0767 26.2132C36.8048 30.726 31.7889 34.3298 26.9692 31.5112C23.4915 29.4785 20.3554 34.4746 23.8226 36.5009C30.4025 40.3465 38.1177 37.9851 42.0563 32.9862C42.1929 33.0592 42.3373 33.1251 42.4957 33.1805C45.7132 34.3015 49.9309 37.286 51.2161 38.3437C52.5008 39.4014 54.7082 44.7898 56.0191 47.4972C57.6094 50.7823 62.745 48.3896 61.1489 45.0906C59.663 42.0188 57.1688 35.8882 55.2234 34.3371C53.6629 33.0931 50.6332 30.7779 48.0636 29.4645C49.802 26.0971 51.6121 22.7661 53.5176 19.4926C59.5916 21.3537 65.365 19.1614 69.4768 13.4017C71.605 10.4215 66.6879 7.59635 64.5837 10.5425Z" fill="#2DBE60"/>
</svg>
