<svg width="60" height="70" viewBox="0 0 60 70" fill="none" xmlns="http://www.w3.org/2000/svg">
<path d="M29.9996 21.6641C22.6451 21.6641 16.662 27.6471 16.662 35.0011C16.662 42.3556 22.6451 48.3386 29.9996 48.3386C37.3535 48.3386 43.3366 42.3556 43.3366 35.0011C43.3366 27.6471 37.3535 21.6641 29.9996 21.6641ZM37.918 32.4894L28.3632 42.0442C27.9621 42.4453 27.4361 42.6461 26.9106 42.6461C26.3851 42.6461 25.8596 42.4458 25.4585 42.0442L21.8071 38.3929C21.005 37.5913 21.005 36.2908 21.8071 35.4887C22.6087 34.6865 23.9092 34.6865 24.7113 35.4887L26.9106 37.6879L35.0138 29.5852C35.8155 28.7831 37.1159 28.7831 37.918 29.5852C38.7202 30.3868 38.7202 31.6873 37.918 32.4894Z" fill="#2DBE60"/>
<path d="M59.7347 18.9927L59.7325 18.9382C59.7021 18.2658 59.6818 17.5544 59.6695 16.763C59.6124 12.9033 56.5442 9.71075 52.684 9.495C44.6358 9.04585 38.4098 6.4215 33.0901 1.23635L33.0447 1.19309C31.3095 -0.39786 28.6921 -0.39786 26.9564 1.19309L26.911 1.23635C21.5913 6.4215 15.3653 9.04585 7.31705 9.49553C3.45742 9.71075 0.388738 12.9033 0.331594 16.7635C0.319845 17.5496 0.299016 18.261 0.268575 18.9382L0.265371 19.0647C0.108893 27.2716 -0.0855037 37.4854 3.33139 46.7561C5.2102 51.8542 8.05565 56.2858 11.7882 59.9286C16.0393 64.0771 21.6073 67.3707 28.3375 69.7173C28.5565 69.7937 28.784 69.8556 29.0157 69.9021C29.3426 69.9672 29.6716 69.9998 30.0005 69.9998C30.3295 69.9998 30.659 69.9672 30.9853 69.9021C31.2171 69.8556 31.4462 69.7931 31.6663 69.7162C38.3884 67.3653 43.9506 64.0702 48.198 59.9222C51.9289 56.2783 54.7743 51.8456 56.6548 46.7465C60.0845 37.448 59.8906 27.215 59.7347 18.9927ZM29.9995 52.4459C20.3801 52.4459 12.5545 44.6204 12.5545 35.001C12.5545 25.3816 20.3801 17.556 29.9995 17.556C39.6184 17.556 47.4444 25.3816 47.4444 35.001C47.4444 44.6204 39.6184 52.4459 29.9995 52.4459Z" fill="#2DBE60"/>
</svg>
