<svg width="62" height="70" viewBox="0 0 62 70" fill="none" xmlns="http://www.w3.org/2000/svg">
<path d="M61.9786 35.9485L61.9681 35.9489V35.1714C61.9681 32.0882 59.4685 29.5886 56.3854 29.5886C53.3022 29.5886 50.8026 32.0882 50.8026 35.1714V29.0304C50.8026 25.9472 48.303 23.4476 45.2199 23.4476C42.1367 23.4476 39.6371 25.9472 39.6371 29.0304V23.4476C39.6371 20.3644 36.9514 17.8648 33.8682 17.8648C30.7851 17.8648 28.1128 20.5505 28.1128 23.6337L28.0994 5.58276C28.0994 2.49959 25.5998 0 22.5166 0C19.4335 0 16.9339 2.49959 16.9339 5.58276V41.7777C16.9339 41.7777 11.2223 24.6263 3.18651 28.7125C0.377265 30.141 -0.79772 33.5312 0.598714 36.3572L10.9867 57.3796C10.9867 57.3796 17.4077 70 28.6056 70H43.4929C53.7704 70 61.9901 61.6683 61.9901 51.3908L61.9786 35.9485Z" fill="#2DBE60"/>
</svg>
